<svg width="194" height="44" viewBox="0 0 194 44" fill="none" xmlns="http://www.w3.org/2000/svg">
<path d="M49.4453 28V16.7266H51.8047V21.3047H56.8828V16.7266H59.2422V28H56.8828V23.25H51.8047V28H49.4453ZM65.6875 28.1797C63.0703 28.1797 61.4844 26.4688 61.4844 23.7109V23.7031C61.4844 20.9688 63.0859 19.2109 65.5938 19.2109C68.1016 19.2109 69.6641 20.9297 69.6641 23.5312V24.2422H63.7422C63.7656 25.6562 64.5234 26.4766 65.7344 26.4766C66.7344 26.4766 67.2891 25.9453 67.4453 25.6172L67.4688 25.5703H69.5938L69.5781 25.6484C69.3125 26.7266 68.2031 28.1797 65.6875 28.1797ZM65.6328 20.9219C64.6406 20.9219 63.9062 21.5938 63.7656 22.8125H67.4766C67.3359 21.5625 66.625 20.9219 65.6328 20.9219ZM75.6562 18.2344C73.8672 18.2344 72.6797 17.1094 72.6797 15.5156H74.3828C74.4062 16.3438 74.8906 16.9766 75.6562 16.9766C76.4219 16.9766 76.9062 16.3438 76.9219 15.5156H78.625C78.625 17.1094 77.4453 18.2344 75.6562 18.2344ZM71.6875 28V19.3984H73.9297V24.7812H74.0938L77.375 19.3984H79.6172V28H77.375V22.5547H77.2031L73.9297 28H71.6875ZM82.0625 30.8516V19.3984H84.3438V20.7266H84.4844C84.9297 19.8047 85.8438 19.2578 87.0625 19.2578C89.2109 19.2578 90.5547 20.9453 90.5547 23.6875V23.7031C90.5547 26.4688 89.2422 28.1328 87.0625 28.1328C85.8828 28.1328 84.9219 27.5625 84.4844 26.625H84.3438V30.8516H82.0625ZM86.2812 26.2422C87.4844 26.2422 88.2344 25.2812 88.2344 23.7031V23.6875C88.2344 22.1094 87.4922 21.1484 86.2812 21.1484C85.0781 21.1484 84.3203 22.1094 84.3203 23.6875V23.7031C84.3203 25.2812 85.0859 26.2422 86.2812 26.2422ZM96.3984 28.1797C93.75 28.1797 92.1562 26.5 92.1562 23.7031V23.6875C92.1562 20.9141 93.7734 19.2109 96.3984 19.2109C99.0234 19.2109 100.641 20.9062 100.641 23.6875V23.7031C100.641 26.5078 99.0469 28.1797 96.3984 28.1797ZM96.3984 26.3906C97.6094 26.3906 98.3047 25.3984 98.3047 23.7031V23.6875C98.3047 22.0078 97.6016 21 96.3984 21C95.1875 21 94.4922 22.0078 94.4922 23.6875V23.7031C94.4922 25.3984 95.1797 26.3906 96.3984 26.3906ZM105.891 28.1875C103.867 28.1875 102.234 27.3281 102.039 25.4922L102.031 25.4219H104.211L104.227 25.4766C104.414 26.1172 105 26.4609 105.859 26.4609C106.82 26.4609 107.375 26.0312 107.375 25.4062V25.3906C107.375 24.7188 106.844 24.3672 105.844 24.3672H104.664V22.9453H105.828C106.766 22.9453 107.164 22.5469 107.164 21.9453V21.9297C107.164 21.3672 106.734 20.9375 105.844 20.9375C105.016 20.9375 104.516 21.3125 104.406 21.8984L104.398 21.9453H102.25L102.258 21.8828C102.453 20.2969 103.633 19.2109 105.938 19.2109C108.047 19.2109 109.383 20.1172 109.383 21.625V21.6406C109.383 22.5625 108.812 23.2109 107.844 23.4297V23.5703C109.078 23.8047 109.648 24.4922 109.648 25.4531V25.4688C109.648 27.0703 108.219 28.1875 105.891 28.1875ZM111.719 28V19.3984H116.023C117.812 19.3984 118.867 20.2578 118.867 21.5703V21.5859C118.867 22.5078 118.227 23.2891 117.32 23.4375V23.5781C118.477 23.6875 119.25 24.4844 119.25 25.5469V25.5625C119.25 27.0078 118.055 28 116.102 28H111.719ZM113.961 22.9375H115.289C116.172 22.9375 116.625 22.5547 116.625 21.8984V21.8828C116.625 21.2656 116.219 20.8594 115.414 20.8594H113.961V22.9375ZM113.961 26.5312H115.578C116.461 26.5312 116.906 26.1094 116.906 25.4375V25.4219C116.906 24.7188 116.422 24.3359 115.445 24.3359H113.961V26.5312ZM122.055 31.0312C121.789 31.0312 121.5 31.0234 121.234 31.0078V29.2891C121.391 29.3047 121.617 29.3125 121.828 29.3125C122.641 29.3125 123.109 29 123.273 28.3281L123.352 28L120.328 19.3984H122.836L124.641 25.9141H124.797L126.602 19.3984H129.008L126.078 27.9922C125.312 30.2656 124.18 31.0312 122.055 31.0312ZM133.469 24.3984H133.031V28H130.75V19.3984H133.031V22.7734H133.438L136 19.3984H138.586L135.32 23.3359L138.758 28H136.047L133.469 24.3984ZM141.984 28.1953C141.188 28.1953 140.609 27.6094 140.609 26.8359C140.609 26.0625 141.188 25.4844 141.984 25.4844C142.789 25.4844 143.359 26.0625 143.359 26.8359C143.359 27.6094 142.789 28.1953 141.984 28.1953ZM149.727 28.1797C147.078 28.1797 145.484 26.5 145.484 23.7031V23.6875C145.484 20.9141 147.102 19.2109 149.727 19.2109C152.352 19.2109 153.969 20.9062 153.969 23.6875V23.7031C153.969 26.5078 152.375 28.1797 149.727 28.1797ZM149.727 26.3906C150.938 26.3906 151.633 25.3984 151.633 23.7031V23.6875C151.633 22.0078 150.93 21 149.727 21C148.516 21 147.82 22.0078 147.82 23.6875V23.7031C147.82 25.3984 148.508 26.3906 149.727 26.3906ZM155.828 28V19.3984H158.109V20.7266H158.25C158.641 19.7969 159.492 19.2109 160.719 19.2109C162.633 19.2109 163.664 20.3828 163.664 22.4375V28H161.383V22.9531C161.383 21.7422 160.883 21.1016 159.805 21.1016C158.75 21.1016 158.109 21.8594 158.109 23.0234V28H155.828ZM165.953 28V16.1094H168.234V28H165.953ZM171.758 18.0781C171.055 18.0781 170.469 17.5156 170.469 16.8125C170.469 16.1016 171.055 15.5391 171.758 15.5391C172.461 15.5391 173.039 16.1016 173.039 16.8125C173.039 17.5156 172.461 18.0781 171.758 18.0781ZM170.609 28V19.3984H172.891V28H170.609ZM175.188 28V19.3984H177.469V20.7266H177.609C178 19.7969 178.852 19.2109 180.078 19.2109C181.992 19.2109 183.023 20.3828 183.023 22.4375V28H180.742V22.9531C180.742 21.7422 180.242 21.1016 179.164 21.1016C178.109 21.1016 177.469 21.8594 177.469 23.0234V28H175.188ZM189.016 28.1797C186.398 28.1797 184.812 26.4688 184.812 23.7109V23.7031C184.812 20.9688 186.414 19.2109 188.922 19.2109C191.43 19.2109 192.992 20.9297 192.992 23.5312V24.2422H187.07C187.094 25.6562 187.852 26.4766 189.062 26.4766C190.062 26.4766 190.617 25.9453 190.773 25.6172L190.797 25.5703H192.922L192.906 25.6484C192.641 26.7266 191.531 28.1797 189.016 28.1797ZM188.961 20.9219C187.969 20.9219 187.234 21.5938 187.094 22.8125H190.805C190.664 21.5625 189.953 20.9219 188.961 20.9219Z" fill="white"/>
<path d="M11.7552 17.8804C16.3378 15.6888 19.9241 11.9696 21.9829 7.32068C20.6546 5.926 18.9279 4.92979 17.0683 4.33207L16.0721 4C16.0057 4.13283 15.9393 4.33208 15.9393 4.4649C14.3453 8.98103 11.0911 12.6338 6.70778 14.6926C3.65275 16.1537 1.39469 18.8102 0.332068 21.9981L0 22.9943C0.132827 23.0607 0.332071 23.1271 0.464899 23.1271C1.72676 23.592 2.98862 24.1897 4.18406 24.9203C5.8444 21.9317 8.50095 19.408 11.7552 17.8804Z" fill="url(#paint0_linear_4004_1089)"/>
<path d="M31.0151 18.1461C28.5578 21.8653 25.1707 24.8539 20.9867 26.8463C17.5996 28.4402 15.0094 31.4289 13.814 35.0152L13.4819 36.1442C14.7438 37.2733 16.2713 38.1366 17.9316 38.668L18.9279 39C18.9943 38.8672 19.0607 38.6679 19.0607 38.5351C20.6546 34.019 23.9089 30.3662 28.2922 28.3074C31.3472 26.8463 33.6717 24.1898 34.6679 21.0019L35 20.0057C33.6053 19.6072 32.277 18.9431 31.0151 18.1461Z" fill="url(#paint1_linear_4004_1089)"/>
<path d="M10.8256 32.6908C12.4859 28.706 15.541 25.4517 19.4594 23.5921C23.0457 21.8654 26.0343 19.2088 28.0932 15.9546C26.5656 14.4935 25.3038 12.8331 24.374 10.8407C21.9167 15.3568 18.0647 19.0096 13.3493 21.2676C10.6264 22.5295 8.43472 24.7212 7.10645 27.3777C8.56755 28.7724 9.76299 30.4991 10.6928 32.4251C10.6928 32.4251 10.7592 32.558 10.8256 32.6908Z" fill="url(#paint2_linear_4004_1089)"/>
<defs>
<linearGradient id="paint0_linear_4004_1089" x1="7.63328e-08" y1="22.382" x2="22.8007" y2="21.1018" gradientUnits="userSpaceOnUse">
<stop stop-color="#6356FE"/>
<stop offset="0.303754" stop-color="#764AEF"/>
<stop offset="0.618202" stop-color="#8A3EDF"/>
<stop offset="1" stop-color="#A330CB"/>
</linearGradient>
<linearGradient id="paint1_linear_4004_1089" x1="13.4819" y1="36.4698" x2="35.8029" y2="35.2391" gradientUnits="userSpaceOnUse">
<stop stop-color="#6356FE"/>
<stop offset="0.303754" stop-color="#764AEF"/>
<stop offset="0.618202" stop-color="#8A3EDF"/>
<stop offset="1" stop-color="#A330CB"/>
</linearGradient>
<linearGradient id="paint2_linear_4004_1089" x1="7.10645" y1="30.0397" x2="28.8851" y2="28.922" gradientUnits="userSpaceOnUse">
<stop stop-color="#6356FE"/>
<stop offset="0.303754" stop-color="#764AEF"/>
<stop offset="0.618202" stop-color="#8A3EDF"/>
<stop offset="1" stop-color="#A330CB"/>
</linearGradient>
</defs>
</svg>
